<svg width="64" height="64" viewBox="0 0 64 64" fill="none" xmlns="http://www.w3.org/2000/svg">
<path d="M1 27.7954C1.47714 26.231 1.96993 24.6667 2.42361 23.1023C3.84199 18.237 5.24994 13.3717 6.64747 8.50644C6.92906 7.52087 7.04639 7.46611 8.03978 7.83375L8.99407 8.16227C9.04128 8.11971 9.08096 8.06946 9.1114 8.01365C9.53379 6.86382 9.54161 6.83253 10.6758 7.23145C14.1566 8.58466 17.8251 9.04615 21.4936 9.53112C23.0887 9.70937 24.6735 9.97046 26.2415 10.3133C27.3228 10.5315 28.3494 10.9644 29.2603 11.5865C30.1713 12.2086 30.9481 13.0071 31.5448 13.9349C31.9125 13.4969 32.2488 13.0354 32.6477 12.6364C34.1863 11.1819 36.1533 10.2629 38.2561 10.0161C41.4396 9.50765 44.6388 9.1322 47.8067 8.56119C49.3979 8.2153 50.9655 7.76855 52.4999 7.22363C53.6263 6.87164 53.6107 6.84036 54.0018 7.90415C54.0018 7.98236 54.0643 8.04494 54.1112 8.15445C54.4632 8.0293 54.7996 7.91979 55.1281 7.79464C56.0746 7.45047 56.2154 7.51305 56.4891 8.45168C58.2152 14.4225 59.9412 20.3958 61.6673 26.3718C61.7846 26.7864 61.9098 27.2088 62.0271 27.6312C62.2227 28.3117 62.1444 28.4603 61.4717 28.6793L51.9993 31.7377L44.5137 34.1469L43.9974 34.3346C44.3885 34.6553 44.7171 34.9291 45.0534 35.195C47.0871 36.8377 49.1052 38.4724 51.1467 40.0994C51.3077 40.212 51.4374 40.3637 51.5237 40.5402C51.6099 40.7167 51.6497 40.9123 51.6395 41.1085C51.6395 42.2035 51.6395 43.2986 51.6395 44.3937C51.573 44.7211 51.4597 45.0372 51.3032 45.3323C50.9979 45.2399 50.7079 45.1028 50.4427 44.9256C49.4963 44.0495 48.5811 43.1265 47.6503 42.227C46.7195 41.3275 46.1563 41.4448 45.2568 42.36C44.3572 43.2751 44.3338 43.9244 45.1864 44.7613C47.1575 46.6933 49.0974 48.6723 51.1233 50.5496C51.3094 50.7097 51.4553 50.9114 51.5491 51.1383C51.6428 51.3652 51.6819 51.611 51.663 51.8559C51.663 53.1934 51.663 54.5232 51.663 55.8529C51.663 56.1345 51.5144 56.5569 51.3188 56.6351C51.1233 56.7133 50.7165 56.5256 50.5366 56.3379C44.3573 50.5652 38.2092 44.7874 32.0924 39.0043L31.5683 38.5116L31.099 38.9339L12.8816 56.1423C12.5922 56.4082 12.2949 56.9245 11.8569 56.6116C11.6144 56.4395 11.544 55.9233 11.5284 55.5635C11.5284 54.2729 11.4893 52.9744 11.5284 51.6525C11.5534 51.2702 11.7047 50.907 11.9586 50.62C13.9141 48.6645 15.8696 46.709 17.8877 44.8083C18.3492 44.3624 18.7715 43.8618 18.5212 43.1969C18.3942 42.8281 18.1821 42.4943 17.9022 42.2225C17.6223 41.9508 17.2824 41.7487 16.9099 41.6325C16.6639 41.5793 16.4079 41.5966 16.1713 41.6824C15.9347 41.7682 15.7271 41.919 15.5724 42.1175L12.7955 44.8239C12.5296 45.082 12.2402 45.5044 11.8569 45.2306C11.6275 44.9793 11.5066 44.6476 11.5206 44.3076C11.4815 43.2751 11.5206 42.2348 11.5206 41.1789C11.5017 40.9434 11.5444 40.7071 11.6445 40.4931C11.7446 40.2792 11.8987 40.095 12.0916 39.9586C14.2739 38.23 16.4406 36.4778 18.6073 34.7335L19.1783 34.2486L14.8762 32.8563L1.82913 28.648C1.5544 28.5223 1.29245 28.3704 1.04693 28.1944L1 27.7954ZM32.1393 21.5379V32.207C33.3235 30.7481 34.9862 29.756 36.8325 29.4068C38.1978 29.1372 39.5806 28.9647 40.9703 28.8905C45.3355 28.5951 49.6639 27.896 53.9001 26.8021C55.3158 26.4344 56.7003 25.9651 58.1239 25.5349C57.9988 25.089 57.8736 24.7527 57.7954 24.3694C57.7172 23.9861 57.5138 23.7984 57.068 23.8062C55.441 23.8062 53.8062 23.8062 52.1792 23.8062C51.7803 23.8062 51.397 23.8062 51.397 23.2509C51.397 22.6955 51.8116 22.7346 52.1792 22.7346C53.6498 22.7346 55.1203 22.7346 56.5908 22.7346H57.2792C57.2166 22.4921 57.1853 22.3201 57.1305 22.1558C56.7551 20.8834 56.3744 19.6084 55.9885 18.3308C55.7226 17.4391 55.7226 17.4391 54.7761 17.4C54.6744 17.4 54.5415 17.4 54.4867 17.4C54.432 17.4 54.0565 17.0402 54.0643 16.8603C54.0721 16.6804 54.3381 16.4692 54.5415 16.391C54.7967 16.3255 55.0618 16.3069 55.3237 16.3362C55.2298 15.3428 55.2142 15.335 54.3225 15.335H50.6227C50.2316 15.335 49.7388 15.4132 49.731 14.8266C49.7231 14.2399 50.2394 14.2712 50.6539 14.2712H54.784L53.7514 10.8843C52.3748 11.3067 51.0841 11.7526 49.7622 12.1045C46.2132 12.9009 42.6226 13.4989 39.007 13.8958C37.0709 14.0667 35.2272 14.8009 33.7037 16.0077C33.0361 16.5241 32.5328 17.2234 32.2551 18.0204C31.9774 18.8175 31.9371 19.678 32.1393 20.4975H39.9613C40.3133 20.4975 40.6105 20.6149 40.6183 21.0216C40.6262 21.4284 40.3133 21.5457 39.9613 21.5613H32.1393V21.5379ZM6.78044 19.5276H14.008C14.3912 19.5276 14.7902 19.5276 14.7902 20.036C14.7902 20.5445 14.3912 20.5992 14.008 20.5992H13.5308C11.3407 20.5992 9.15051 20.5992 6.96036 20.5992C6.77263 20.5992 6.45975 20.6774 6.42064 20.7948C6.10776 21.7256 5.8418 22.672 5.54457 23.6733C6.53796 23.6733 7.42967 23.6733 8.32137 23.6733C8.71247 23.6733 9.10357 23.7358 9.10357 24.2286C9.10357 24.7214 8.73594 24.7449 8.3683 24.7449C7.53135 24.7449 6.6944 24.7449 5.86527 24.7449C5.28645 24.7449 5.08308 24.9404 5.08308 25.5271L5.34902 25.6522C8.27172 26.6909 11.2862 27.4504 14.3521 27.9206C17.8329 28.4134 21.3372 28.7028 24.8336 29.133C27.0804 29.2887 29.1887 30.2759 30.747 31.902C30.8174 31.9724 30.9113 32.0193 31.0051 32.0975V27.5451H27.6964C27.3615 27.5887 27.0223 27.5887 26.6874 27.5451C26.4918 27.4904 26.2103 27.1853 26.2337 27.0445C26.3294 26.8128 26.5119 26.6275 26.7421 26.5283C26.9567 26.4887 27.1768 26.4887 27.3914 26.5283H30.9817V25.8243C30.4185 25.8243 29.8866 25.8243 29.3547 25.8243C28.9558 25.8243 28.5725 25.7383 28.5725 25.2611C28.5725 24.784 28.9245 24.737 29.2999 24.7449H30.9817C30.9817 22.9458 30.9113 21.2328 30.9817 19.5276C31.0197 18.8712 30.8971 18.2154 30.6245 17.617C30.3519 17.0187 29.9375 16.4958 29.4173 16.0938C28.7437 15.5408 27.9993 15.0804 27.2036 14.7249C25.123 13.7863 22.839 13.7159 20.6254 13.4108C17.2239 13.0376 13.874 12.29 10.6367 11.1816C10.2378 11.0329 9.85449 10.9156 9.39299 10.767L7.75037 16.3519H10.097C10.4646 16.3519 10.8009 16.4379 10.8088 16.8838C10.8166 17.3296 10.4959 17.4313 10.1126 17.4235C9.33042 17.4235 8.60297 17.4235 7.84423 17.4235C7.67215 17.4235 7.39838 17.5095 7.35927 17.619C7.14808 18.2213 6.96817 18.8315 6.78044 19.5276ZM32.593 37.9953L50.5836 54.9612C50.5836 53.8818 50.5836 52.9588 50.5836 52.0358C50.5646 51.715 50.4346 51.4108 50.2159 51.1753C48.3152 49.2746 46.3831 47.4052 44.4589 45.5357C44.1843 45.3042 43.96 45.0189 43.7999 44.6974C43.6398 44.3759 43.5473 44.0249 43.5281 43.6662C43.5924 43.0433 43.8181 42.4479 44.1831 41.939C44.548 41.43 45.0394 41.0251 45.6088 40.7643C46.0897 40.5604 46.6235 40.5173 47.1309 40.6413C47.6383 40.7654 48.0921 41.0499 48.4247 41.4526C49.1052 42.1331 49.8013 42.8058 50.5992 43.5802C50.5992 42.6807 50.5992 41.9298 50.5992 41.1867C50.5641 41.0373 50.4784 40.9046 50.3567 40.8112C47.9319 38.8505 45.4993 36.8924 43.0588 34.9369C42.9955 34.8833 42.9219 34.8432 42.8426 34.819C42.7632 34.7947 42.6798 34.787 42.5973 34.7961C40.7826 35.3593 38.9757 35.9459 37.1219 36.5482L37.5756 37.0254L39.9222 39.372C40.196 39.6379 40.4463 39.9352 40.1099 40.2871C39.7736 40.6391 39.4294 40.4045 39.1478 40.1151C39.0696 40.029 38.9836 39.9508 38.8975 39.8648C38.0371 39.0043 37.1845 38.1361 36.3163 37.2992C36.2407 37.2176 36.1485 37.153 36.046 37.1099C35.9435 37.0667 35.833 37.0459 35.7218 37.0488C34.6267 37.307 33.6568 37.6433 32.593 37.9953ZM54.4007 9.21824C54.4633 9.44508 54.5102 9.6328 54.5649 9.82053C56.1293 14.9778 57.6807 20.1299 59.219 25.2768C59.4615 26.059 59.4067 26.2232 58.5854 26.4892C57.1618 26.935 55.7539 27.4122 54.3146 27.8033C49.4841 29.0598 44.5389 29.825 39.5546 30.0873C37.7532 30.1019 35.9899 30.6076 34.4546 31.55C32.2254 33.1144 31.8186 34.7257 32.1862 37.0254L60.9398 27.7407C59.1095 21.4127 57.3026 15.1473 55.4645 8.83496L54.4007 9.21824ZM7.66433 8.81932L2.19676 27.7407L31.0051 37.0254C30.9582 35.8443 31.1929 34.7414 30.6219 33.6854C30.1082 32.7569 29.3761 31.9676 28.4889 31.3856C27.6016 30.8037 26.586 30.4466 25.5297 30.3454C23.496 30.0325 21.4232 29.9465 19.366 29.7275C14.3019 29.2367 9.31347 28.1497 4.50426 26.4892C3.78463 26.231 3.72206 26.0824 3.91761 25.3472C4.83278 22.2888 5.76359 19.2304 6.68658 16.1642C7.37492 13.8723 8.06326 11.5727 8.76723 9.2417L7.66433 8.81932ZM26.7343 36.7751C25.8426 36.4778 25.037 36.2275 24.2313 35.9459C24.0994 35.8853 23.951 35.87 23.8095 35.9026C23.668 35.9351 23.5413 36.0136 23.4491 36.1259C22.6669 36.9472 21.8847 37.745 21.0477 38.535C20.6645 38.9183 20.1951 38.9027 20.0856 38.535C20.0722 38.4071 20.0855 38.2779 20.1245 38.1554C20.1636 38.0329 20.2276 37.9198 20.3125 37.8232C21.0399 37.041 21.8065 36.2588 22.62 35.4766C21.9551 35.2576 21.3606 35.0386 20.7505 34.8822C20.645 34.8579 20.5356 34.8558 20.4292 34.876C20.3229 34.8962 20.2218 34.9382 20.1326 34.9995C17.6973 36.9289 15.2777 38.8714 12.8738 40.8269C12.7564 40.9207 12.6157 41.0615 12.6078 41.1867C12.6078 41.9689 12.6078 42.7511 12.6078 43.4707L12.8347 43.6115C13.4917 42.8919 14.1253 42.1566 14.8136 41.4761C15.1254 41.1339 15.5104 40.8665 15.94 40.6939C17.3792 40.2246 18.2866 40.9911 19.3034 42.3365C19.6103 42.8073 19.7379 43.3725 19.6633 43.9295C19.5887 44.4864 19.3166 44.9981 18.8967 45.3714C16.9256 47.3191 14.9388 49.2355 12.9676 51.1753C12.8268 51.3083 12.6235 51.4726 12.6235 51.629C12.6235 52.6928 12.6235 53.7488 12.6235 54.9455L30.5436 37.9875C29.8709 37.7606 29.2608 37.5964 28.682 37.3617C28.4601 37.2441 28.2036 37.2095 27.9585 37.264C27.7133 37.3184 27.4956 37.4585 27.3444 37.659C25.7331 39.3407 24.067 40.9677 22.4244 42.6103C22.135 42.8997 21.8221 43.3455 21.3841 42.9153C20.9461 42.4851 21.3841 42.1331 21.6813 41.8359L23.496 40.0212C24.5363 38.9574 25.608 37.9093 26.7343 36.7751ZM32.0611 16.0077C32.2019 15.9608 32.2488 15.9608 32.2645 15.9373C33.8575 14.2354 36.003 13.1544 38.3187 12.8867C41.3849 12.3549 44.5137 11.995 47.6425 11.4084C49.6058 11.0408 51.5065 10.3837 53.4699 9.844L52.9771 8.2796C51.6954 8.72745 50.3897 9.10348 49.0661 9.40597C45.7261 9.99261 42.3548 10.4619 38.9992 10.9704C37.1285 11.1594 35.3469 11.8634 33.8523 13.0041C33.3711 13.3625 32.9652 13.8123 32.6579 14.3277C32.3505 14.8431 32.1477 15.4139 32.0611 16.0077ZM31.0208 15.9217C30.9916 15.6832 30.9419 15.4476 30.8721 15.2177C30.439 14.0963 29.6433 13.1519 28.6116 12.5348C26.9889 11.5989 25.1819 11.0277 23.3161 10.8609C20.1873 10.4072 17.1055 9.96133 14.0158 9.40597C12.7128 9.10331 11.4279 8.72725 10.1674 8.2796L9.76845 9.67973C12.7173 10.8239 15.7922 11.6117 18.928 12.0263C20.7349 12.2923 22.5496 12.4878 24.3564 12.7694C26.8678 13.0286 29.2171 14.1316 31.0208 15.8982V15.9217Z" fill="black"/>
<path d="M17.6374 17.4235H15.6741C15.2986 17.4235 14.9701 17.3375 14.9779 16.8916C14.9857 16.4457 15.3142 16.3519 15.6897 16.3519H19.5616C19.937 16.3519 20.2421 16.4849 20.2264 16.9307C20.2108 17.3766 19.8979 17.4313 19.5459 17.4235H17.6374Z" fill="black"/>
</svg>
